# xmcd
#
# Track frame offsets: 
#        150
#        20442
#        38822
#        58897
#        83972
#        98847
#        119147
#        133272
#        146597
#        162897
#        182922
#        197885
#        216272
#
# Disc length: 3117 seconds
#
# Revision: 2
# Processed by: cddbd v1.5.2PL0 Copyright (c) Steve Scherf et al.
# Submitted via: ExactAudioCopy v0.99pb4
#
DISCID=c80c2b0d
DTITLE=A.C. Reed - I'm In The Wrong Business
DYEAR=1987
DGENRE=Blues
TTITLE0=I'm In The Wrong Business
TTITLE1=I Can't Go On This Way
TTITLE2=Fast Food Annie
TTITLE3=This Little Voice
TTITLE4=My Buddy Buddy Friends
TTITLE5=She's Fine
TTITLE6=These Blues Is Killing Me
TTITLE7=Miami Strut
TTITLE8=The Things I Want You To Do
TTITLE9=Don't Drive Drunk
TTITLE10=Hard Times
TTITLE11=Going To New York
TTITLE12=Moving Out Of The Ghetto
EXTD=YEAR: 1987
EXTT0=
EXTT1=
EXTT2=
EXTT3=
EXTT4=
EXTT5=
EXTT6=
EXTT7=
EXTT8=
EXTT9=
EXTT10=
EXTT11=
EXTT12=
PLAYORDER=
